<?xml version="1.0" encoding="windows-1252"?>
<!-- Generator: Adobe Illustrator 19.0.0, SVG Export Plug-In . SVG Version: 6.00 Build 0)  -->
<svg version="1.1" id="Capa_1" xmlns="http://www.w3.org/2000/svg" xmlns:xlink="http://www.w3.org/1999/xlink" x="0px" y="0px" viewBox="0 0 512 512" style="enable-background:new 0 0 512 512;" xml:space="preserve" width="48" height="48">
<g>
	<g>
		<path d="M497,30h-45V15c0-8.284-6.716-15-15-15H316c-24.508,0-46.305,11.818-60,30.052C242.305,11.818,220.508,0,196,0H75    c-8.284,0-15,6.716-15,15v15H15C6.716,30,0,36.716,0,45v330c0,8.284,6.716,15,15,15h188.5l28.5,38c5.804,7.738,9,17.327,9,27v42    c0,8.284,6.716,15,15,15h211c8.284,0,15-6.716,15-15v-40.787c0-9.673,3.767-18.767,10.606-25.607    C505.112,418.101,512,401.473,512,383.787c0-3.107,0-333.671,0-338.787C512,36.716,505.284,30,497,30z M316,30h106v152.58    c-4.695-1.665-9.741-2.58-15-2.58c-5.524,0-10.923,0.993-16,2.873V165c0-24.813-20.187-45-45-45c-5.259,0-10.305,0.915-15,2.58    V105c0-24.813-20.187-45-45-45c-4.541,0-8.925,0.682-13.061,1.939C278.55,43.477,295.728,30,316,30z M30,360V60h30v255    c0,8.284,6.716,15,15,15h95.828c1.337,10.61,4.916,20.848,10.56,30H30z M173.134,300H90V30h106c24.813,0,45,20.187,45,45    c0,2.045,0,140.579,0,143.787l-48.81,48.81C183.126,276.66,176.615,287.837,173.134,300z M482,383.787    c0,9.673-3.767,18.767-10.606,25.607C458.888,421.899,452,438.527,452,456.213V482H271v-27c0-16.122-5.327-32.104-15-45    l-46.777-62.37c-13.35-17.8-11.553-43.087,4.18-58.82L241,261.213V285c0,8.284,6.716,15,15,15s15-6.716,15-15V105    c0-8.271,6.729-15,15-15s15,6.729,15,15c0,7.061,0,172.335,0,180c0,8.284,6.716,15,15,15s15-6.716,15-15c0-1.568,0-118.403,0-120    c0-8.271,6.729-15,15-15s15,6.729,15,15c0,5.273,0,114.737,0,120c0,8.284,6.716,15,15,15s15-6.716,15-15v-60    c0-7.991,7.477-15,16-15c8.271,0,15,6.729,15,15c0,6.359,0,53.641,0,60c0,8.284,6.716,15,15,15s15-6.716,15-15v-30    c0-8.271,6.729-15,15-15s15,6.729,15,15C482,258.956,482,376.941,482,383.787z M482,212.58c-4.695-1.665-9.741-2.58-15-2.58    c-5.259,0-10.305,0.915-15,2.58V60h30V212.58z"  fill="#5C4AE4"/>
	</g>
</g>
<g>
</g>
<g>
</g>
<g>
</g>
<g>
</g>
<g>
</g>
<g>
</g>
<g>
</g>
<g>
</g>
<g>
</g>
<g>
</g>
<g>
</g>
<g>
</g>
<g>
</g>
<g>
</g>
<g>
</g>
</svg>