<svg id="Layer_1" enable-background="new 0 0 512 512" height="48" viewBox="0 0 512 512" width="48" xmlns="http://www.w3.org/2000/svg"><g><path d="m433.998 275.665c-18.104-7.498-38.754-3.389-52.608 10.466l-49.287 49.287c-6.829-17.624-23.963-30.151-43.969-30.151h-80.334c-24.729 0-47.975 9.629-65.458 27.112l-89.749 89.748c-5.857 5.857-5.857 15.355 0 21.213l64.267 64.267c2.813 2.813 6.628 4.394 10.606 4.394 3.979 0 7.793-1.58 10.607-4.394l27.74-27.74h122.328c24.695 0 48.27-10.586 64.682-29.046l107.188-120.588c2.44-2.746 3.789-6.292 3.789-9.966 0-19.598-11.698-37.106-29.802-44.602zm-103.597 155.224c-10.723 12.061-26.125 18.978-42.26 18.978h-128.541c-3.978 0-7.793 1.58-10.606 4.394l-21.527 21.527-43.053-43.054s79.142-79.142 79.142-79.142c11.817-11.817 27.53-18.325 44.245-18.325h80.334c9.447 0 17.133 7.687 17.133 17.134s-7.686 17.133-17.133 17.133h-80.335c-8.284 0-15 6.716-15 15s6.716 15 15 15h96.4c3.979 0 7.794-1.58 10.606-4.394l87.796-87.796c9.56-9.896 27.062-5.257 30.522 7.979z" fill="#5C4AE4"/><path d="m124.065 123.025 12.613 7.28c-.149 3.458-.149 6.931 0 10.389l-12.613 7.28c-7.177 4.143-9.63 13.323-5.492 20.491l40.167 69.568c4.149 7.186 13.339 9.625 20.492 5.489l12.617-7.286c2.921 1.864 5.919 3.599 8.984 5.199v14.565c0 8.284 6.716 15 15 15h80.333c8.284 0 15-6.716 15-15v-14.563c3.065-1.601 6.063-3.335 8.983-5.199l12.618 7.286c7.174 4.144 16.352 1.68 20.491-5.489l40.167-69.568c4.143-7.175 1.677-16.353-5.491-20.491l-12.613-7.28c.148-3.458.148-6.931 0-10.389l12.613-7.28c7.176-4.143 9.63-13.323 5.491-20.491l-40.165-69.57c-4.15-7.188-13.338-9.622-20.491-5.489l-12.618 7.286c-2.92-1.864-5.918-3.599-8.983-5.199v-14.564c0-8.284-6.716-15-15-15h-80.333c-8.284 0-15 6.716-15 15v14.563c-3.065 1.601-6.063 3.335-8.984 5.199l-12.617-7.286c-7.16-4.136-16.344-1.694-20.492 5.489l-40.167 69.568c-4.145 7.177-1.678 16.354 5.49 20.492zm43.237 23.968c-.979-7.51-.979-15.476 0-22.986.779-6.007-2.131-11.894-7.377-14.922l-7.87-4.542 25.165-43.585 7.888 4.555c5.248 3.031 11.804 2.606 16.617-1.076 6.127-4.688 12.817-8.561 19.884-11.509 5.586-2.33 9.225-7.79 9.225-13.844v-9.084h50.333v9.084c0 6.054 3.639 11.514 9.226 13.844 7.066 2.948 13.756 6.82 19.882 11.508 4.813 3.684 11.368 4.11 16.618 1.077l7.888-4.555 25.165 43.585-7.87 4.542c-5.246 3.028-8.156 8.915-7.376 14.922.487 3.756.734 7.623.734 11.493s-.247 7.737-.734 11.493c-.78 6.007 2.13 11.894 7.376 14.922l7.87 4.542-25.165 43.585-7.888-4.555c-5.25-3.033-11.806-2.605-16.618 1.077-6.126 4.688-12.815 8.56-19.882 11.508-5.587 2.33-9.226 7.79-9.226 13.844v9.084h-50.333v-9.084c0-6.054-3.639-11.514-9.225-13.844-7.067-2.948-13.757-6.82-19.884-11.509-4.812-3.682-11.369-4.107-16.617-1.076l-7.888 4.555-25.165-43.585 7.87-4.542c5.246-3.028 8.156-8.915 7.377-14.922z" fill="#5C4AE4"/><path d="m256 190.667c30.419 0 55.167-24.748 55.167-55.167-2.774-73.086-107.571-73.066-110.334.001 0 30.418 24.748 55.166 55.167 55.166zm0-80.334c13.877 0 25.167 11.29 25.167 25.167-1.265 33.341-49.073 33.333-50.334 0 0-13.877 11.29-25.167 25.167-25.167z" fill="#5C4AE4"/></g></svg>