<svg id="Layer_1" enable-background="new 0 0 512.001 512.001" height="48" viewBox="0 0 512.001 512.001" width="48" xmlns="http://www.w3.org/2000/svg"><path d="m256.002 511.751c-227.238-.228-341.538-276.195-181.018-437.02 95.289-99.301 266.749-99.317 362.037.004 160.519 160.839 46.205 436.801-181.019 437.016zm0-472c-119.103 0-216 96.897-216 216 11.865 286.553 420.178 286.47 432-.002 0-119.1-96.898-215.998-216-215.998zm93.142 280.858-63.188-63.188c.556-9.332-3.424-18.251-9.964-24.039.006-.209.01-.419.01-.63v-117c-1.056-26.536-38.953-26.516-40 0v117c0 .211.004.421.01.63-20.915 18.722-6.727 53.786 21.659 52.324l63.188 63.188c7.81 7.811 20.474 7.811 28.284 0 7.811-7.811 7.811-20.474.001-28.285z" fill="#5C4AE4"/></svg>